<mxfile host="app.diagrams.net" agent="Mozilla/5.0 (Windows NT 10.0; Win64; x64) AppleWebKit/537.36 (KHTML, like Gecko) Chrome/134.0.0.0 Safari/537.36" version="26.2.2">
  <diagram name="Page-1" id="2NHOtzXS3ejpUwLiltRz">
    <mxGraphModel dx="769" dy="488" grid="1" gridSize="10" guides="1" tooltips="1" connect="1" arrows="1" fold="1" page="1" pageScale="1" pageWidth="850" pageHeight="1100" math="0" shadow="0">
      <root>
        <mxCell id="0" />
        <mxCell id="1" parent="0" />
        <mxCell id="cgucZnjDDm7wGpD36g81-4" style="edgeStyle=orthogonalEdgeStyle;rounded=0;orthogonalLoop=1;jettySize=auto;html=1;exitX=1;exitY=0.5;exitDx=0;exitDy=0;" edge="1" parent="1" source="cgucZnjDDm7wGpD36g81-1" target="cgucZnjDDm7wGpD36g81-2">
          <mxGeometry relative="1" as="geometry" />
        </mxCell>
        <mxCell id="cgucZnjDDm7wGpD36g81-1" value="user" style="rounded=0;whiteSpace=wrap;html=1;" vertex="1" parent="1">
          <mxGeometry x="91" y="305.5" width="120" height="39" as="geometry" />
        </mxCell>
        <mxCell id="cgucZnjDDm7wGpD36g81-6" style="edgeStyle=orthogonalEdgeStyle;rounded=0;orthogonalLoop=1;jettySize=auto;html=1;exitX=1;exitY=0.5;exitDx=0;exitDy=0;" edge="1" parent="1" source="cgucZnjDDm7wGpD36g81-2" target="cgucZnjDDm7wGpD36g81-3">
          <mxGeometry relative="1" as="geometry" />
        </mxCell>
        <mxCell id="cgucZnjDDm7wGpD36g81-2" value="Wholesale footwear&lt;div&gt;Management System&lt;/div&gt;" style="ellipse;whiteSpace=wrap;html=1;fontSize=13;" vertex="1" parent="1">
          <mxGeometry x="320" y="290" width="160" height="70" as="geometry" />
        </mxCell>
        <mxCell id="cgucZnjDDm7wGpD36g81-3" value="admin" style="rounded=0;whiteSpace=wrap;html=1;" vertex="1" parent="1">
          <mxGeometry x="580" y="305" width="120" height="39" as="geometry" />
        </mxCell>
        <mxCell id="cgucZnjDDm7wGpD36g81-7" value="product ordering" style="text;strokeColor=none;align=center;fillColor=none;html=1;verticalAlign=middle;whiteSpace=wrap;rounded=0;" vertex="1" parent="1">
          <mxGeometry x="230" y="308" width="60" height="30" as="geometry" />
        </mxCell>
        <mxCell id="cgucZnjDDm7wGpD36g81-8" value="product id, quantity" style="text;strokeColor=none;align=center;fillColor=none;html=1;verticalAlign=middle;whiteSpace=wrap;rounded=0;" vertex="1" parent="1">
          <mxGeometry x="490" y="307" width="60" height="30" as="geometry" />
        </mxCell>
      </root>
    </mxGraphModel>
  </diagram>
</mxfile>
